PathFileType	4	(X/Y/Z)	s10c0303.trc
DataRate	CameraRate	NumFrames	NumMarkers	Units	OrigDataRate	OrigDataStartFrame	OrigNumFrames
200	200	4	50	mm	200	250	2000
Frame#	Time	racr			lacr			c7			jug			rlel			rdr			llel			ldr			s2			lic			ric			lasi			rasi			rpsi			lpsi			rgt			lgt			rth1			rth2			rth3			rth4			rlfc			rmfc			rsh1			rsh2			rsh3			rsh4			rlmal			rmmal			rcal			rtoe			rmt5			lth1			lth2			lth4			lth3			llfc			lmfc			llmal			lmmal			lcal			lmt5			lsh1			lsh2			lsh3			lsh4			ltoe			SBIKE			LBIKE			RBIKE			
		X1	Y1	Z1	X2	Y2	Z2	X3	Y3	Z3	X4	Y4	Z4	X5	Y5	Z5	X6	Y6	Z6	X7	Y7	Z7	X8	Y8	Z8	X9	Y9	Z9	X10	Y10	Z10	X11	Y11	Z11	X12	Y12	Z12	X13	Y13	Z13	X14	Y14	Z14	X15	Y15	Z15	X16	Y16	Z16	X17	Y17	Z17	X18	Y18	Z18	X19	Y19	Z19	X20	Y20	Z20	X21	Y21	Z21	X22	Y22	Z22	X23	Y23	Z23	X24	Y24	Z24	X25	Y25	Z25	X26	Y26	Z26	X27	Y27	Z27	X28	Y28	Z28	X29	Y29	Z29	X30	Y30	Z30	X31	Y31	Z31	X32	Y32	Z32	X33	Y33	Z33	X34	Y34	Z34	X35	Y35	Z35	X36	Y36	Z36	X37	Y37	Z37	X38	Y38	Z38	X39	Y39	Z39	X40	Y40	Z40	X41	Y41	Z41	X42	Y42	Z42	X43	Y43	Z43	X44	Y44	Z44	X45	Y45	Z45	X46	Y46	Z46	X47	Y47	Z47	X48	Y48	Z48	X49	Y49	Z49	X50	Y50	Z50	
250	1.2500	438.067645	1285.181724	64.062163	575.988009	1307.950113	-229.001124	487.482196	1346.057472	-102.721622	478.343820	1201.704232	-103.881922	440.627493	1008.458293	28.370476	635.546775	901.201844	-37.357418	577.271782	1082.497824	-405.040606	650.385024	876.573068	-417.798795	-30.554397	1167.409719	-213.828152	147.050324	1161.497512	-356.194741	143.640070	1150.251335	-74.340402	144.469719	1079.435370	-330.612973	145.723798	1071.121931	-79.550508	18.371237	1217.182758	-159.235821	33.007138	1229.343892	-272.176227	39.006529	1066.684758	-24.243321	21.753857	1049.347352	-407.858131	121.587400	938.828440	-6.110047	194.888333	891.680144	-26.141362	231.978211	815.739664	-39.005508	220.469147	918.309523	-32.202568	309.189240	736.632335	-62.806441	290.865679	727.788606	-176.344577	268.176796	628.533728	-30.535121	274.735395	541.119802	-45.473717	238.812173	462.376152	-47.887982	301.969888	539.734007	-73.376217	212.779647	363.027821	-63.634139	231.125714	379.927813	-147.915628	159.494386	337.403481	-109.985487	403.344146	328.189177	-103.347166	322.803476	296.611603	-40.159488	103.104388	947.750645	-422.922942	176.709868	903.326534	-409.161498	200.550003	927.766673	-395.949684	220.350569	826.517966	-409.153514	278.642361	735.134162	-398.479206	274.589835	718.796248	-278.206293	-17.088836	481.851384	-386.149817	5.836809	474.157244	-306.770566	-68.180952	494.936394	-333.277545	8.203096	335.135990	-397.621606	171.383049	666.643785	-427.824432	132.180695	589.706313	-410.948147	55.927452	543.113489	-402.964149	155.591933	572.697628	-385.652643	82.947613	299.688975	-350.337770	-216.524247	830.794456	-213.667256	-103.904350	80.611704	-418.359738	-103.857398	80.518994	-18.351846	
251	1.2550	439.213529	1284.771845	65.468369	578.065279	1308.007852	-227.982440	489.412436	1346.278027	-101.597582	479.860904	1201.946993	-103.176299	440.641281	1008.156145	28.381906	635.621984	901.144652	-37.471136	578.466473	1082.635079	-404.308911	650.552494	876.540297	-417.646226	-28.495164	1168.350078	-213.057683	148.905124	1162.673148	-355.673775	145.731512	1150.840530	-73.786178	146.273724	1080.488855	-330.267761	147.975430	1071.869189	-79.567970	20.403973	1217.959356	-158.371902	34.870357	1230.356865	-271.373319	41.504171	1066.850127	-23.990277	23.799596	1050.287347	-407.539680	123.829889	938.836555	-5.997586	196.648356	891.033624	-26.322046	233.022560	814.695407	-39.290708	222.331922	917.404014	-32.652636	309.320362	735.095296	-63.275412	290.397775	726.188196	-176.705158	268.333139	627.134341	-30.809887	274.925626	539.644256	-45.687650	239.034537	460.938972	-47.930581	302.072986	538.396275	-73.628964	213.136033	361.671244	-63.589921	231.653436	378.274175	-147.900729	159.732676	336.505381	-109.947278	403.662716	325.578949	-103.007042	322.803417	294.417156	-40.165322	105.378852	948.732277	-422.506730	179.009299	904.364170	-408.923383	202.729621	928.457405	-395.026149	222.460197	827.339776	-408.766131	280.430839	736.338953	-398.247210	275.783687	719.205870	-278.012842	-16.730566	484.180646	-386.138142	6.518770	476.230188	-306.909665	-67.968107	497.132162	-333.249774	8.555335	337.453092	-397.595274	172.758407	667.964765	-427.655901	133.124696	591.041285	-410.643049	56.818125	545.234614	-403.067543	156.450258	574.129371	-385.545383	83.285738	302.145503	-350.295034	-216.524214	830.782298	-213.652191	-103.892798	80.613375	-418.364456	-103.863322	80.527325	-18.340264	
252	1.2600	440.445383	1284.171873	66.903557	580.015314	1308.042358	-227.051266	491.349580	1346.577317	-100.360558	481.405046	1202.106687	-102.413506	440.617139	1007.730596	28.434897	635.698255	901.018689	-37.580261	579.633685	1082.766600	-403.651461	650.704102	876.522502	-417.487109	-26.624653	1168.942561	-212.241707	153.046966	1164.837190	-357.113855	147.844641	1151.248050	-73.129377	148.124434	1081.644551	-329.872907	150.164585	1072.308029	-79.380235	22.330753	1218.516307	-157.521315	36.810920	1231.306964	-270.723997	44.075969	1067.132323	-23.622347	25.708129	1051.407590	-407.161155	126.163253	938.909444	-5.729472	198.361576	890.167046	-26.473195	233.955548	813.614062	-39.568942	224.179691	916.357185	-33.355484	309.355851	733.556182	-63.725322	289.797896	724.420003	-176.914174	268.359161	625.592398	-31.115357	275.052120	538.161382	-45.902892	239.284020	459.399790	-48.033524	302.140139	536.839490	-73.862356	213.520356	360.176145	-63.574598	231.963108	376.546095	-147.945093	160.024163	335.318144	-109.931878	403.959532	323.062450	-102.579111	322.745756	292.181299	-40.189497	107.620067	949.818530	-422.163729	181.189169	905.452561	-408.485488	204.859136	929.325153	-394.418801	224.704259	828.318317	-408.437448	282.155202	737.243417	-397.856004	277.131987	719.779520	-277.811190	-16.353203	486.456260	-386.125659	5.761990	479.015112	-306.924881	-67.708431	499.399253	-333.211771	8.926541	339.767836	-397.524142	174.224893	669.200328	-427.552724	134.235276	592.443457	-410.337517	57.576055	547.247535	-403.186611	157.395450	575.499347	-385.230688	83.588856	304.397995	-350.204213	-216.648874	830.580437	-213.525609	-103.896043	80.614304	-418.355791	-103.866095	80.525319	-18.354202	
253	1.2650	441.822279	1283.686830	68.206517	581.918534	1308.119789	-226.133798	493.269022	1346.859334	-99.255769	483.056771	1202.296933	-101.639981	440.565939	1007.269378	28.498993	635.612733	900.638152	-37.839186	580.718115	1082.886463	-403.050666	650.849346	876.459088	-417.278993	-24.541919	1169.850034	-211.448661	154.808794	1166.009356	-356.495703	149.780921	1151.755130	-72.714341	149.999936	1082.777151	-329.485795	152.359465	1072.616429	-79.025221	24.421980	1219.199088	-156.715970	38.675366	1232.384413	-269.951672	46.542341	1067.241600	-23.350846	27.747257	1052.537787	-406.913083	128.336871	938.819658	-5.692608	200.011749	889.294998	-26.655075	234.876498	812.535963	-39.900712	226.083480	915.420656	-33.621277	309.409429	731.784231	-64.284502	289.189692	722.717907	-177.369665	268.374878	624.017803	-31.420236	275.111912	536.652867	-46.157783	239.502429	457.741023	-48.141743	302.222131	535.350980	-74.197140	213.943845	358.609132	-63.658631	232.181281	374.866754	-147.932553	160.273759	334.408226	-109.924202	404.154252	320.411794	-102.472362	322.611204	289.907389	-40.231952	109.942443	950.984651	-421.867141	183.413924	906.458282	-408.075512	207.099694	930.382028	-393.855800	226.841169	829.507826	-408.174889	283.949286	738.426904	-397.605785	278.723563	720.477271	-277.604538	-15.938295	488.724133	-386.138229	6.026149	481.336223	-306.932731	-67.413590	501.702512	-333.257246	9.347703	342.124776	-397.503231	175.796972	670.361312	-427.410064	135.293938	593.787679	-410.116215	58.418779	549.144948	-403.125795	158.296622	576.854046	-385.034629	84.025667	306.818544	-350.227271	-216.655570	830.577769	-213.539086	-103.891289	80.606141	-418.362630	-103.863986	80.510673	-18.351175	
